#!OML:ASF X:\für Bonn\!DataBase\2005_08_12_Daniel\c3d\Daniel.ASF
:FULLY-SPECIFIED
:DEGREES
2129
root -25.9541 17.3273 25.5953 -184.284 -0.828897 533.337
lowerback 9.2477 3.04883 -3.55581
upperback 1.31168 3.23621 -3.72097
thorax -3.80476 1.49873 -2.26604
lowerneck -0.353762 3.38923 -5.62733
upperneck 10.6333 4.34607 -0.713172
head 3.37959 1.6962 0.853607
rclavicle 1.17034e-014 -2.3059e-014
rhumerus -21.8866 -0.253716 -85.3128
rradius 29.2451
rwrist 3.39883
rhand -20.8469 15.2726
rfingers 7.12502
rthumb 5.52215 -14.6354
lclavicle 1.17034e-014 -2.3059e-014
lhumerus -47.9033 31.2175 52.0191
lradius 28.7106
lwrist -4.54152
lhand -20.8917 -5.38328
lfingers 7.12502
lthumb 5.47888 24.5259
rfemur 1.59071 -9.18959 15.9362
rtibia 34.7321
rfoot -35.641 -14.1776
rtoes -10.9061
lfemur -14.381 24.3373 -30.5607
ltibia 42.7796
lfoot -31.2639 33.5882
ltoes -6.71452
2130
root -25.951 17.3183 25.6382 -184.501 0.430191 533.484
lowerback 9.40449 2.56297 -3.54287
upperback 1.38242 3.22837 -3.62666
thorax -3.80699 1.76482 -2.1956
lowerneck -0.566952 3.35529 -5.60373
upperneck 10.5703 4.31626 -0.620845
head 3.39716 1.69145 0.883353
rclavicle 2.05494e-014 -1.27222e-014
rhumerus -22.2773 0.575033 -85.8485
rradius 29.7659
rwrist 2.98016
rhand -20.7367 15.2425
rfingers 7.12502
rthumb 5.62858 -14.6628
lclavicle 2.05494e-014 -1.27222e-014
lhumerus -47.6968 31.5888 53.1418
lradius 28.5669
lwrist -4.90034
lhand -20.5034 -5.3702
lfingers 7.12502
lthumb 5.85385 24.5289
rfemur 1.59904 -7.98323 16.3043
rtibia 34.499
rfoot -35.7054 -14.1508
rtoes -10.5927
lfemur -14.5081 24.5276 -30.2324
ltibia 43.1668
lfoot -31.7304 33.6769
ltoes -5.73943
2131
root -25.9487 17.3079 25.6811 -184.717 1.65183 533.695
lowerback 9.5874 2.47834 -3.35181
upperback 1.46491 3.12289 -3.52601
thorax -3.81966 1.70649 -2.19057
lowerneck -0.634053 3.33677 -5.63858
upperneck 10.4544 4.28991 -0.465127
head 3.36612 1.68997 0.939708
rclavicle 6.78353e-015 -2.78299e-015
rhumerus -22.7624 1.38389 -86.3544
rradius 30.3065
rwrist 2.5809
rhand -20.5181 15.4068
rfingers 7.12502
rthumb 5.8396 -14.4928
lclavicle 6.78353e-015 -2.78299e-015
lhumerus -47.4925 31.9271 54.2704
lradius 28.4548
lwrist -5.6771
lhand -20.0444 -5.31319
lfingers 7.12502
lthumb 6.29698 24.5732
rfemur 1.58412 -6.84133 16.7333
rtibia 34.3384
rfoot -35.7722 -14.0723
rtoes -10.4892
lfemur -14.6069 24.6345 -29.8204
ltibia 43.5801
lfoot -32.2312 33.6954
ltoes -4.97795
2132
root -25.9442 17.3 25.7228 -184.894 2.84078 533.836
lowerback 9.73812 2.3931 -3.26497
upperback 1.538 3.01036 -3.44897
thorax -3.82836 1.64742 -2.14949
lowerneck -0.701542 3.32809 -5.55278
upperneck 10.3578 4.27759 -0.369358
head 3.34502 1.69696 0.956301
rclavicle -8.89561e-015 6.36111e-015
rhumerus -23.297 2.25007 -86.8849
rradius 30.9024
rwrist 2.18134
rhand -20.2919 15.3911
rfingers 7.12502
rthumb 6.05802 -14.5023
lclavicle -8.89561e-015 6.36111e-015
lhumerus -47.1314 32.147 55.4933
lradius 28.3072
lwrist -6.44906
lhand -19.4902 -5.29021
lfingers 7.12502
lthumb 6.83194 24.5796
rfemur 1.51642 -5.71522 17.0884
rtibia 34.2401
rfoot -35.8837 -13.9555
rtoes -10.2244
lfemur -14.7221 24.5762 -29.4653
ltibia 43.9915
lfoot -32.622 33.7039
ltoes -4.15427
2133
root -25.9403 17.2901 25.7637 -185.046 4.01762 534.004
lowerback 9.83098 2.30433 -3.15271
upperback 1.60834 2.89873 -3.38044
thorax -3.8061 1.58834 -2.12825
lowerneck -0.562736 3.33329 -5.29448
upperneck 10.1392 4.27138 -0.405564
head 3.24847 1.71219 0.893526
rclavicle 1.78658e-014 -3.06128e-014
rhumerus -23.8535 3.08879 -87.424
rradius 31.4247
rwrist 1.97719
rhand -20.088 15.4754
rfingers 7.12502
rthumb 6.25489 -14.4123
lclavicle 1.78658e-014 -3.06128e-014
lhumerus -46.7405 32.4723 56.6441
lradius 28.1003
lwrist -7.66339
lhand -19.0228 -5.26011
lfingers 7.12502
lthumb 7.28318 24.5945
rfemur 1.39548 -4.58683 17.4752
rtibia 34.1926
rfoot -35.8723 -13.8722
rtoes -9.9627
lfemur -14.8425 24.4978 -29.0633
ltibia 44.4184
lfoot -32.7237 33.673
ltoes -4.08142
2134
root -25.9344 17.2828 25.8039 -185.185 5.14807 534.175
lowerback 9.91066 2.1899 -3.09286
upperback 1.69003 2.74943 -3.28397
thorax -3.76901 1.51112 -2.04244
lowerneck -0.446682 3.35975 -5.10521
upperneck 9.93125 4.29589 -0.410719
head 3.15772 1.74028 0.854339
rclavicle -6.90777e-015 1.63003e-014
rhumerus -24.3389 4.12143 -87.9702
rradius 31.8436
rwrist 1.63133
rhand -19.9092 15.4937
rfingers 7.12502
rthumb 6.42746 -14.3888
lclavicle -6.90777e-015 1.63003e-014
lhumerus -46.2666 32.7444 57.8461
lradius 27.8477
lwrist -9.00629
lhand -18.5476 -5.26039
lfingers 7.12502
lthumb 7.74185 24.5779
rfemur 1.2808 -3.44921 17.9013
rtibia 34.1833
rfoot -35.9099 -13.8472
rtoes -9.81502
lfemur -14.9261 24.2349 -28.6109
ltibia 44.8389
lfoot -32.8177 33.5356
ltoes -3.8194
